<svg
        xmlns="http://www.w3.org/2000/svg"
        xmlns:xlink="http://www.w3.org/1999/xlink"
        width="20px" height="18px">
    <path fill-rule="evenodd"  fill="rgb(0, 45, 114)"
          d="M-0.000,17.999 L-0.000,1.168 L6.196,1.168 L6.196,-0.001 L7.608,-0.001 L7.608,1.168 L12.392,1.168 L12.392,-0.001 L13.804,-0.001 L13.804,1.168 L20.000,1.168 L20.000,17.999 L-0.000,17.999 ZM18.588,2.571 L13.804,2.571 L13.804,3.506 L12.392,3.506 L12.392,2.571 L7.608,2.571 L7.608,3.740 L6.196,3.740 L6.196,2.571 L1.411,2.571 L1.411,4.908 L18.588,4.908 L18.588,2.571 ZM18.588,6.311 L1.411,6.311 L1.411,16.597 L18.588,16.597 L18.588,6.311 ZM6.941,10.519 L4.588,10.519 L4.588,8.181 L6.941,8.181 L6.941,10.519 ZM6.941,14.727 L4.588,14.727 L4.588,12.389 L6.941,12.389 L6.941,14.727 ZM11.176,10.519 L8.823,10.519 L8.823,8.181 L11.176,8.181 L11.176,10.519 ZM11.176,14.727 L8.823,14.727 L8.823,12.389 L11.176,12.389 L11.176,14.727 ZM15.411,10.519 L13.058,10.519 L13.058,8.181 L15.411,8.181 L15.411,10.519 ZM15.411,14.727 L13.058,14.727 L13.058,12.389 L15.411,12.389 L15.411,14.727 Z"/>
</svg>